PathFileType	4	(X/Y/Z)	C:\Users\italobelli\Desktop\GitHub\PTbot_officialCBL\Personal_Results\FLX23_noisy2.trc
DataRate	CameraRate	NumFrames	NumMarkers	Units	OrigDataRate	OrigDataStartFrame	OrigNumFrames
106.533333	106.533333	25	9	m	106.533333	401	800
Frame#	Time		gu		centelbow		EpL		centpxt8		centijc7		ij		ts		aa		ai
			X1	Y1	Z1	X2	Y2	Z2	X3	Y3	Z3	X4	Y4	Z4	X5	Y5	Z5	X6	Y6	Z6	X7	Y7	Z7	X8	Y8	Z8	X9	Y9	Z9

401	3.7547	-0.098715	0.064927	0.10451	-0.010547	0.28791	0.19897	-0.036916	0.30024	0.18488	-0.046816	-0.15316	-0.008669	-0.046816	0.031938	-0.008669	0	0	0	-0.13552	-0.018883	0.057519	-0.13189	0.087009	0.11163	-0.10573	-0.064389	0.15709
402	3.7641	-0.098577	0.064951	0.10465	-0.0092784	0.28706	0.19954	-0.035597	0.29957	0.18551	-0.046816	-0.15316	-0.008669	-0.046816	0.031938	-0.008669	0	0	0	-0.13574	-0.018713	0.057502	-0.13168	0.087061	0.11181	-0.106	-0.064513	0.15694
403	3.7735	-0.098436	0.064976	0.10479	-0.0079943	0.28619	0.20011	-0.03426	0.29887	0.18615	-0.046816	-0.15316	-0.008669	-0.046816	0.031938	-0.008669	0	0	0	-0.13597	-0.018542	0.057484	-0.13146	0.087113	0.11199	-0.10626	-0.064639	0.15679
404	3.7829	-0.098294	0.065	0.10493	-0.0066956	0.2853	0.20069	-0.032905	0.29816	0.1868	-0.046816	-0.15316	-0.008669	-0.046816	0.031938	-0.008669	0	0	0	-0.1362	-0.018368	0.057466	-0.13125	0.087165	0.11218	-0.10653	-0.064767	0.15664
405	3.7922	-0.09815	0.065024	0.10507	-0.0053833	0.28439	0.20128	-0.031535	0.29743	0.18745	-0.046816	-0.15316	-0.008669	-0.046816	0.031938	-0.008669	0	0	0	-0.13643	-0.018193	0.057447	-0.13103	0.087217	0.11237	-0.1068	-0.064897	0.15648
406	3.8016	-0.098005	0.065048	0.10521	-0.0040586	0.28346	0.20186	-0.030149	0.29669	0.18812	-0.046816	-0.15316	-0.008669	-0.046816	0.031938	-0.008669	0	0	0	-0.13667	-0.018016	0.057427	-0.13081	0.087268	0.11255	-0.10707	-0.065029	0.15632
407	3.811	-0.097858	0.065072	0.10536	-0.0027225	0.28251	0.20246	-0.02875	0.29593	0.18878	-0.046816	-0.15316	-0.008669	-0.046816	0.031938	-0.008669	0	0	0	-0.1369	-0.017837	0.057407	-0.13059	0.087319	0.11274	-0.10734	-0.065161	0.15616
408	3.8204	-0.097709	0.065096	0.1055	-0.0013763	0.28155	0.20305	-0.027338	0.29516	0.18946	-0.046816	-0.15316	-0.008669	-0.046816	0.031938	-0.008669	0	0	0	-0.13713	-0.017656	0.057387	-0.13037	0.08737	0.11293	-0.10761	-0.065296	0.156
409	3.8298	-0.097559	0.065121	0.10565	-2.0859e-05	0.28057	0.20365	-0.025914	0.29438	0.19014	-0.046816	-0.15316	-0.008669	-0.046816	0.031938	-0.008669	0	0	0	-0.13736	-0.017474	0.057366	-0.13015	0.08742	0.11312	-0.10788	-0.065431	0.15583
410	3.8392	-0.097408	0.065145	0.1058	0.0013425	0.27957	0.20426	-0.024479	0.29358	0.19082	-0.046816	-0.15316	-0.008669	-0.046816	0.031938	-0.008669	0	0	0	-0.13759	-0.01729	0.057344	-0.12993	0.087469	0.11332	-0.10815	-0.065568	0.15566
411	3.8486	-0.097256	0.06517	0.10595	0.0027129	0.27856	0.20486	-0.023035	0.29277	0.19151	-0.046816	-0.15316	-0.008669	-0.046816	0.031938	-0.008669	0	0	0	-0.13783	-0.017104	0.057322	-0.1297	0.087519	0.11351	-0.10842	-0.065705	0.15549
412	3.8579	-0.097102	0.065195	0.1061	0.004089	0.27753	0.20547	-0.021582	0.29195	0.19221	-0.046816	-0.15316	-0.008669	-0.046816	0.031938	-0.008669	0	0	0	-0.13806	-0.016917	0.0573	-0.12948	0.087568	0.1137	-0.10869	-0.065843	0.15532
413	3.8673	-0.096948	0.06522	0.10625	0.0054698	0.27649	0.20608	-0.020121	0.29111	0.19291	-0.046816	-0.15316	-0.008669	-0.046816	0.031938	-0.008669	0	0	0	-0.13829	-0.016728	0.057276	-0.12926	0.087616	0.11389	-0.10896	-0.065982	0.15514
414	3.8767	-0.096792	0.065246	0.1064	0.0068542	0.27543	0.2067	-0.018655	0.29027	0.19361	-0.046816	-0.15316	-0.008669	-0.046816	0.031938	-0.008669	0	0	0	-0.13852	-0.016538	0.057253	-0.12903	0.087664	0.11408	-0.10923	-0.066121	0.15497
415	3.8861	-0.096636	0.065272	0.10656	0.0082411	0.27436	0.20732	-0.017183	0.28941	0.19432	-0.046816	-0.15316	-0.008669	-0.046816	0.031938	-0.008669	0	0	0	-0.13875	-0.016346	0.057228	-0.12881	0.087712	0.11428	-0.1095	-0.066261	0.15479
416	3.8955	-0.096479	0.065298	0.10671	0.0096294	0.27327	0.20793	-0.015706	0.28854	0.19504	-0.046816	-0.15316	-0.008669	-0.046816	0.031938	-0.008669	0	0	0	-0.13897	-0.016153	0.057203	-0.12859	0.087759	0.11447	-0.10977	-0.066401	0.15461
417	3.9049	-0.096321	0.065325	0.10687	0.011018	0.27217	0.20855	-0.014226	0.28766	0.19575	-0.046816	-0.15316	-0.008669	-0.046816	0.031938	-0.008669	0	0	0	-0.1392	-0.015958	0.057178	-0.12837	0.087805	0.11466	-0.11003	-0.06654	0.15443
418	3.9143	-0.096162	0.065352	0.10702	0.012406	0.27106	0.20918	-0.012744	0.28678	0.19648	-0.046816	-0.15316	-0.008669	-0.046816	0.031938	-0.008669	0	0	0	-0.13942	-0.015762	0.057152	-0.12815	0.087851	0.11485	-0.1103	-0.06668	0.15424
419	3.9237	-0.096004	0.06538	0.10718	0.013791	0.26994	0.2098	-0.011261	0.28588	0.1972	-0.046816	-0.15316	-0.008669	-0.046816	0.031938	-0.008669	0	0	0	-0.13965	-0.015565	0.057125	-0.12793	0.087896	0.11504	-0.11056	-0.06682	0.15406
420	3.933	-0.095844	0.065409	0.10733	0.015174	0.2688	0.21042	-0.0097781	0.28497	0.19793	-0.046816	-0.15316	-0.008669	-0.046816	0.031938	-0.008669	0	0	0	-0.13986	-0.015367	0.057098	-0.12771	0.087941	0.11523	-0.11083	-0.066959	0.15387
421	3.9424	-0.095685	0.065438	0.10749	0.016553	0.26765	0.21105	-0.0082959	0.28406	0.19866	-0.046816	-0.15316	-0.008669	-0.046816	0.031938	-0.008669	0	0	0	-0.14008	-0.015167	0.05707	-0.1275	0.087985	0.11542	-0.11109	-0.067098	0.15368
422	3.9518	-0.095525	0.065467	0.10764	0.017926	0.2665	0.21167	-0.0068159	0.28314	0.1994	-0.046816	-0.15316	-0.008669	-0.046816	0.031938	-0.008669	0	0	0	-0.1403	-0.014966	0.057042	-0.12728	0.088029	0.11561	-0.11135	-0.067236	0.15349
423	3.9612	-0.095365	0.065498	0.1078	0.019293	0.26533	0.2123	-0.0053389	0.28221	0.20014	-0.046816	-0.15316	-0.008669	-0.046816	0.031938	-0.008669	0	0	0	-0.14051	-0.014764	0.057013	-0.12707	0.088071	0.1158	-0.1116	-0.067374	0.1533
424	3.9706	-0.095205	0.065529	0.10795	0.020653	0.26415	0.21292	-0.0038662	0.28127	0.20088	-0.046816	-0.15316	-0.008669	-0.046816	0.031938	-0.008669	0	0	0	-0.14072	-0.014561	0.056983	-0.12686	0.088114	0.11598	-0.11186	-0.06751	0.15311
425	3.98	-0.095045	0.065561	0.10811	0.022004	0.26296	0.21355	-0.0023987	0.28033	0.20162	-0.046816	-0.15316	-0.008669	-0.046816	0.031938	-0.008669	0	0	0	-0.14092	-0.014357	0.056953	-0.12665	0.088155	0.11616	-0.11211	-0.067646	0.15292
